<svg width="135" height="40" viewBox="0 0 135 40" fill="none" xmlns="http://www.w3.org/2000/svg">
<g clip-path="url(#clip0_22_484)">
<path d="M124.249 7.92969e-06H10.7566C10.3429 7.92969e-06 9.9342 7.92975e-06 9.5216 0.00200793C9.17621 0.00400793 8.83358 0.00981793 8.48488 0.0147079C7.72734 0.0226097 6.97157 0.0816842 6.22416 0.191418C5.4778 0.303541 4.75482 0.514924 4.07967 0.818418C3.40534 1.12448 2.7892 1.52218 2.25358 1.99708C1.71514 2.47064 1.26632 3.01802 0.924356 3.61817C0.581453 4.21712 0.343683 4.85895 0.219258 5.52149C0.0936495 6.18319 0.0260586 6.85253 0.0170916 7.52349C0.00662229 7.83009 0.00551669 8.13771 0 8.44435V31.5586C0.00551669 31.8691 0.00662229 32.1699 0.0170916 32.4805C0.0260614 33.1514 0.0936522 33.8207 0.219258 34.4824C0.343339 35.1453 0.581124 35.7875 0.924356 36.3867C1.26616 36.9849 1.71505 37.5301 2.25358 38.001C2.78717 38.478 3.40371 38.876 4.07967 39.1797C4.75481 39.484 5.47772 39.6967 6.22416 39.8105C6.9717 39.9194 7.72738 39.9785 8.48488 39.9873C8.83358 39.9941 9.17621 39.998 9.5216 39.998C9.93419 40 10.343 40 10.7566 40H124.249C124.655 40 125.067 40 125.472 39.998C125.816 39.998 126.169 39.9941 126.512 39.9873C127.268 39.9789 128.023 39.9198 128.769 39.8105C129.518 39.6959 130.243 39.4833 130.921 39.1797C131.597 38.8758 132.213 38.4779 132.746 38.001C133.283 37.5282 133.733 36.9835 134.079 36.3867C134.42 35.7871 134.655 35.145 134.777 34.4824C134.903 33.8206 134.973 33.1515 134.987 32.4805C134.991 32.1699 134.991 31.8691 134.991 31.5586C135 31.1953 135 30.834 135 30.4648V9.53614C135 9.16993 135 8.80665 134.991 8.44435C134.991 8.13771 134.991 7.83009 134.987 7.52345C134.973 6.85243 134.903 6.18324 134.777 5.52145C134.655 4.85929 134.419 4.21751 134.079 3.61813C133.383 2.4152 132.278 1.43603 130.921 0.818328C130.243 0.515575 129.518 0.304248 128.769 0.191328C128.023 0.0811107 127.269 0.0220157 126.512 0.0145679C126.169 0.00968793 125.816 0.00382793 125.472 0.00187793C125.067 -0.00012207 124.655 -0.00012207 124.249 -0.00012207V7.92969e-06Z" fill="#A6A6A6"/>
<path d="M9.52707 39.125C9.18335 39.125 8.84792 39.1211 8.50689 39.1143C7.80042 39.1061 7.0956 39.0516 6.39821 38.9512C5.74792 38.8519 5.11798 38.6673 4.52914 38.4033C3.94571 38.1415 3.41356 37.7983 2.9531 37.3867C2.48598 36.98 2.09708 36.5082 1.80181 35.9902C1.50328 35.4688 1.29669 34.9099 1.18922 34.333C1.07316 33.7131 1.01036 33.0863 1.00138 32.458C0.994227 32.2471 0.984863 31.5449 0.984863 31.5449V8.44434C0.984863 8.44434 0.994836 7.75293 1.00144 7.5498C1.01004 6.92248 1.07247 6.29665 1.18818 5.67773C1.29585 5.09925 1.50261 4.53875 1.80129 4.01563C2.09547 3.49794 2.48222 3.02586 2.94653 2.61768C3.41032 2.20562 3.94416 1.8606 4.52859 1.59521C5.11607 1.33209 5.74483 1.14873 6.3938 1.05127C7.09348 0.949836 7.80074 0.894996 8.50967 0.88721L9.52763 0.875H125.467L126.497 0.8877C127.199 0.895099 127.9 0.94945 128.593 1.05029C129.249 1.14898 129.884 1.33362 130.479 1.59814C131.649 2.13299 132.602 2.97916 133.203 4.01807C133.497 4.53758 133.701 5.09351 133.807 5.66699C133.924 6.29099 133.989 6.92174 134.003 7.5542C134.006 7.8374 134.006 8.1416 134.006 8.44434C134.015 8.81934 134.015 9.17627 134.015 9.53613V30.4648C134.015 30.8281 134.015 31.1826 134.006 31.54C134.006 31.8652 134.006 32.1631 134.002 32.4697C133.989 33.0909 133.924 33.7104 133.809 34.3232C133.704 34.9043 133.498 35.4675 133.2 35.9932C132.902 36.5056 132.516 36.9733 132.054 37.3789C131.593 37.7927 131.06 38.1379 130.475 38.4014C129.883 38.6674 129.248 38.8527 128.593 38.9512C127.896 39.0522 127.191 39.1067 126.485 39.1143C126.154 39.1211 125.808 39.125 125.472 39.125L124.249 39.127L9.52707 39.125Z" fill="black"/>
<path d="M47.7237 27.1396H42.3836L41.1012 30.4961H38.8394L43.8974 18.0781H46.2474L51.3053 30.4961H49.0049L47.7237 27.1396ZM42.9367 25.5908H47.1695L45.0829 20.1435H45.0245L42.9367 25.5908Z" fill="white"/>
<path d="M62.2289 25.9697C62.2289 28.7832 60.53 30.5908 57.9663 30.5908C57.3169 30.6209 56.671 30.4883 56.1027 30.2082C55.5343 29.928 55.0664 29.5117 54.7526 29.0068H54.7041V33.4912H52.6075V21.4424H54.6369V22.9482H54.6755C55.0037 22.4458 55.4795 22.0316 56.0522 21.7497C56.6249 21.4679 57.2731 21.3289 57.9278 21.3476C60.5201 21.3477 62.2289 23.1641 62.2289 25.9697ZM60.0739 25.9697C60.0739 24.1367 59.0052 22.9316 57.3747 22.9316C55.7728 22.9316 54.6953 24.1621 54.6953 25.9697C54.6953 27.7939 55.7728 29.0156 57.3747 29.0156C59.0052 29.0156 60.0739 27.8193 60.0739 25.9697Z" fill="white"/>
<path d="M73.4708 25.9697C73.4708 28.7832 71.7719 30.5908 69.2082 30.5908C68.5588 30.6209 67.9129 30.4883 67.3446 30.2082C66.7762 29.928 66.3083 29.5117 65.9945 29.0068H65.946V33.4912H63.8494V21.4424H65.8788V22.9482H65.9173C66.2456 22.4458 66.7214 22.0316 67.2941 21.7497C67.8667 21.4679 68.5149 21.3289 69.1696 21.3476C71.762 21.3476 73.4708 23.164 73.4708 25.9697ZM71.3158 25.9697C71.3158 24.1367 70.2471 22.9316 68.6166 22.9316C67.0147 22.9316 65.9372 24.1621 65.9372 25.9697C65.9372 27.7939 67.0147 29.0156 68.6166 29.0156C70.2471 29.0156 71.3158 27.8193 71.3158 25.9697H71.3158Z" fill="white"/>
<path d="M80.9008 27.0361C81.0561 28.2676 82.4057 29.0761 84.25 29.0761C86.0171 29.0761 87.2885 28.2675 87.2885 27.1572C87.2885 26.1933 86.5217 25.6162 84.7061 25.2207L82.8905 24.833C80.318 24.2822 79.1237 23.2158 79.1237 21.4853C79.1237 19.3427 81.2302 17.871 84.2213 17.871C87.1816 17.871 89.211 19.3427 89.2793 21.4853H87.1629C87.0362 20.246 85.8805 19.498 84.1916 19.498C82.5026 19.498 81.3469 20.2548 81.3469 21.3564C81.3469 22.2343 82.0851 22.7509 83.8908 23.1464L85.4343 23.4823C88.3087 24.0849 89.5029 25.1083 89.5029 26.9247C89.5029 29.248 87.4152 30.703 84.0946 30.703C80.9878 30.703 78.8901 29.2821 78.7546 27.036L80.9008 27.0361Z" fill="white"/>
<path d="M94.0277 19.2998V21.4424H95.9701V22.9141H94.0277V27.9053C94.0277 28.6807 94.4167 29.042 95.2705 29.042C95.5011 29.0384 95.7313 29.0241 95.9602 28.999V30.4619C95.5763 30.5255 95.1861 30.5543 94.7956 30.5478C92.7277 30.5478 91.9213 29.8593 91.9213 28.1035V22.9141H90.4362V21.4424H91.9212V19.2998H94.0277Z" fill="white"/>
<path d="M97.095 25.9697C97.095 23.1211 98.9877 21.3311 101.939 21.3311C104.901 21.3311 106.785 23.1211 106.785 25.9697C106.785 28.8262 104.911 30.6084 101.939 30.6084C98.9689 30.6084 97.095 28.8262 97.095 25.9697ZM104.648 25.9697C104.648 24.0156 103.638 22.8623 101.939 22.8623C100.24 22.8623 99.2312 24.0244 99.2312 25.9697C99.2312 27.9316 100.24 29.0762 101.939 29.0762C103.638 29.0762 104.648 27.9316 104.648 25.9697H104.648Z" fill="white"/>
<path d="M108.513 21.4424H110.513V22.9834H110.561C110.696 22.5021 111.015 22.0768 111.462 21.7789C111.909 21.481 112.459 21.3287 113.018 21.3476C113.26 21.3469 113.501 21.3702 113.736 21.417V23.1553C113.431 23.0726 113.113 23.0347 112.794 23.043C112.49 23.032 112.186 23.0796 111.904 23.1825C111.622 23.2854 111.369 23.4411 111.161 23.639C110.954 23.8369 110.797 24.0723 110.702 24.3289C110.607 24.5856 110.575 24.8575 110.61 25.126V30.4961H108.513L108.513 21.4424Z" fill="white"/>
<path d="M123.403 27.8369C123.121 29.4805 121.315 30.6084 119.005 30.6084C116.033 30.6084 114.189 28.8437 114.189 26.0127C114.189 23.1729 116.043 21.3311 118.917 21.3311C121.743 21.3311 123.52 23.0518 123.52 25.7969V26.4336H116.306V26.5459C116.272 26.8791 116.319 27.2148 116.444 27.5306C116.568 27.8464 116.767 28.1352 117.026 28.3778C117.286 28.6203 117.601 28.8111 117.951 28.9374C118.3 29.0637 118.676 29.1226 119.053 29.1103C119.549 29.1515 120.046 29.0498 120.471 28.8203C120.896 28.5909 121.226 28.246 121.412 27.8369L123.403 27.8369ZM116.315 25.1348H121.422C121.441 24.8352 121.389 24.5354 121.271 24.2541C121.153 23.9729 120.971 23.7164 120.736 23.5006C120.5 23.2849 120.217 23.1145 119.904 23.0003C119.591 22.8861 119.255 22.8305 118.917 22.8369C118.575 22.8351 118.237 22.8933 117.921 23.008C117.605 23.1227 117.318 23.2918 117.076 23.5054C116.834 23.7191 116.642 23.973 116.512 24.2527C116.381 24.5323 116.315 24.8321 116.315 25.1348V25.1348Z" fill="white"/>
<path d="M42.6739 8.73101C43.1135 8.70305 43.5545 8.76191 43.9653 8.90335C44.3761 9.04478 44.7463 9.26526 45.0493 9.54889C45.3523 9.83251 45.5806 10.1722 45.7175 10.5435C45.8545 10.9148 45.8968 11.3083 45.8414 11.6959C45.8414 13.6021 44.679 14.6979 42.6739 14.6979H40.2424V8.73101H42.6739ZM41.288 13.854H42.5571C42.8712 13.8707 43.1855 13.825 43.4772 13.7204C43.7689 13.6158 44.0306 13.4548 44.2432 13.2493C44.4559 13.0437 44.6141 12.7987 44.7065 12.5321C44.7988 12.2655 44.823 11.9839 44.7771 11.708C44.8196 11.4332 44.7931 11.1534 44.6993 10.8887C44.6055 10.6241 44.4469 10.3811 44.2347 10.1771C44.0225 9.97322 43.7621 9.81341 43.4721 9.70917C43.1821 9.60494 42.8696 9.55885 42.5571 9.57422H41.288V13.854Z" fill="white"/>
<path d="M47.0224 12.4443C46.9904 12.1484 47.0286 11.8499 47.1345 11.5678C47.2404 11.2857 47.4116 11.0264 47.6371 10.8064C47.8627 10.5864 48.1377 10.4107 48.4443 10.2904C48.751 10.1701 49.0827 10.108 49.4181 10.108C49.7534 10.108 50.0851 10.1701 50.3918 10.2904C50.6985 10.4107 50.9734 10.5864 51.199 10.8064C51.4246 11.0264 51.5958 11.2857 51.7016 11.5678C51.8075 11.8499 51.8457 12.1484 51.8137 12.4443C51.8463 12.7406 51.8086 13.0396 51.703 13.3221C51.5974 13.6046 51.4263 13.8644 51.2007 14.0848C50.975 14.3052 50.6999 14.4814 50.3929 14.6019C50.0859 14.7225 49.7538 14.7847 49.4181 14.7847C49.0823 14.7847 48.7502 14.7225 48.4432 14.6019C48.1362 14.4814 47.8611 14.3052 47.6355 14.0848C47.4098 13.8644 47.2387 13.6046 47.1332 13.3221C47.0276 13.0396 46.9898 12.7406 47.0224 12.4443V12.4443ZM50.7825 12.4443C50.7825 11.4683 50.2879 10.8975 49.4197 10.8975C48.5483 10.8975 48.058 11.4683 48.058 12.4444C48.058 13.4282 48.5483 13.9946 49.4197 13.9946C50.2879 13.9946 50.7825 13.4243 50.7825 12.4443H50.7825Z" fill="white"/>
<path d="M58.1828 14.6978H57.1428L56.0928 11.3813H56.0135L54.968 14.6978H53.9379L52.5376 10.1948H53.5545L54.4645 13.6308H54.5394L55.5839 10.1948H56.5457L57.5901 13.6308H57.6694L58.575 10.1948H59.5776L58.1828 14.6978Z" fill="white"/>
<path d="M60.7553 10.1948H61.7204V10.9102H61.7953C61.9224 10.6532 62.1368 10.4379 62.4085 10.2941C62.6803 10.1503 62.9959 10.0852 63.3113 10.1079C63.5585 10.0914 63.8067 10.1245 64.0375 10.2046C64.2683 10.2847 64.4758 10.4098 64.6447 10.5706C64.8136 10.7315 64.9394 10.9239 65.013 11.1337C65.0866 11.3436 65.1059 11.5654 65.0696 11.7827V14.6977H64.0671V12.0059C64.0671 11.2822 63.7123 10.9224 62.9709 10.9224C62.803 10.9154 62.6355 10.9408 62.4798 10.9966C62.324 11.0524 62.1837 11.1375 62.0685 11.2458C61.9533 11.3542 61.8659 11.4834 61.8123 11.6245C61.7587 11.7657 61.7401 11.9154 61.7579 12.0635V14.6978H60.7553L60.7553 10.1948Z" fill="white"/>
<path d="M66.6671 8.43701H67.6697V14.6978H66.6671V8.43701Z" fill="white"/>
<path d="M69.0633 12.4443C69.0314 12.1484 69.0696 11.8498 69.1755 11.5677C69.2814 11.2857 69.4526 11.0263 69.6782 10.8063C69.9038 10.5863 70.1788 10.4106 70.4855 10.2903C70.7922 10.17 71.1239 10.1079 71.4593 10.1079C71.7947 10.1079 72.1263 10.17 72.4331 10.2903C72.7398 10.4106 73.0147 10.5863 73.2403 10.8063C73.4659 11.0263 73.6371 11.2857 73.743 11.5677C73.8489 11.8498 73.8871 12.1484 73.8552 12.4443C73.8877 12.7406 73.85 13.0396 73.7443 13.3221C73.6387 13.6046 73.4676 13.8644 73.2419 14.0848C73.0163 14.3052 72.7411 14.4814 72.4341 14.6019C72.1271 14.7224 71.795 14.7847 71.4593 14.7847C71.1235 14.7847 70.7914 14.7224 70.4844 14.6019C70.1774 14.4814 69.9022 14.3052 69.6766 14.0848C69.4509 13.8644 69.2798 13.6046 69.1742 13.3221C69.0686 13.0396 69.0308 12.7406 69.0633 12.4443V12.4443ZM72.8235 12.4443C72.8235 11.4683 72.3288 10.8975 71.4606 10.8975C70.5892 10.8975 70.099 11.4683 70.099 12.4444C70.099 13.4282 70.5892 13.9946 71.4606 13.9946C72.3288 13.9946 72.8235 13.4243 72.8235 12.4443H72.8235Z" fill="white"/>
<path d="M74.9107 13.4243C74.9107 12.6138 75.5916 12.1465 76.8001 12.0801L78.1762 12.0098V11.6211C78.1762 11.1455 77.8214 10.877 77.1362 10.877C76.5765 10.877 76.1887 11.0591 76.0774 11.3775H75.1068C75.2093 10.604 76.0301 10.1079 77.1824 10.1079C78.456 10.1079 79.1744 10.6699 79.1744 11.6211V14.6978H78.2092V14.065H78.1299C77.9689 14.292 77.7428 14.477 77.4748 14.6012C77.2067 14.7254 76.9062 14.7844 76.604 14.772C76.3908 14.7916 76.1752 14.7715 75.9713 14.7128C75.7674 14.6541 75.5796 14.5581 75.4201 14.4312C75.2605 14.3042 75.1328 14.149 75.045 13.9756C74.9573 13.8022 74.9115 13.6144 74.9107 13.4243V13.4243ZM78.1762 13.0396V12.6631L76.9357 12.7334C76.2361 12.7749 75.9188 12.9859 75.9188 13.3828C75.9188 13.7881 76.3154 14.0239 76.8608 14.0239C77.0206 14.0383 77.182 14.024 77.3354 13.9819C77.4889 13.9398 77.6312 13.8708 77.7539 13.7789C77.8766 13.6871 77.9773 13.5743 78.0498 13.4473C78.1224 13.3203 78.1653 13.1816 78.1762 13.0396V13.0396Z" fill="white"/>
<path d="M80.492 12.4444C80.492 11.0215 81.3172 10.1201 82.6007 10.1201C82.9182 10.1072 83.2333 10.1746 83.5091 10.3145C83.785 10.4544 84.0102 10.661 84.1585 10.9101H84.2334V8.43701H85.236V14.6978H84.2753V13.9863H84.196C84.0362 14.2338 83.8031 14.4378 83.5219 14.5763C83.2407 14.7148 82.9222 14.7825 82.6007 14.772C81.3084 14.772 80.492 13.8706 80.492 12.4444ZM81.5277 12.4444C81.5277 13.3994 82.0356 13.9741 82.885 13.9741C83.73 13.9741 84.2522 13.3911 84.2522 12.4483C84.2522 11.5098 83.7245 10.9185 82.885 10.9185C82.041 10.9185 81.5276 11.4971 81.5276 12.4444H81.5277Z" fill="white"/>
<path d="M89.384 12.4443C89.352 12.1484 89.3902 11.8499 89.4961 11.5678C89.6019 11.2857 89.7731 11.0264 89.9987 10.8064C90.2243 10.5864 90.4992 10.4107 90.8059 10.2904C91.1126 10.1701 91.4443 10.108 91.7796 10.108C92.115 10.108 92.4467 10.1701 92.7534 10.2904C93.06 10.4107 93.335 10.5864 93.5606 10.8064C93.7861 11.0264 93.9573 11.2857 94.0632 11.5678C94.1691 11.8499 94.2073 12.1484 94.1753 12.4443C94.2079 12.7406 94.1701 13.0396 94.0645 13.3221C93.959 13.6046 93.7878 13.8644 93.5622 14.0848C93.3366 14.3052 93.0614 14.4814 92.7544 14.6019C92.4475 14.7225 92.1154 14.7847 91.7796 14.7847C91.4439 14.7847 91.1118 14.7225 90.8048 14.6019C90.4978 14.4814 90.2227 14.3052 89.997 14.0848C89.7714 13.8644 89.6003 13.6046 89.4947 13.3221C89.3891 13.0396 89.3514 12.7406 89.384 12.4443V12.4443ZM93.1441 12.4443C93.1441 11.4683 92.6494 10.8975 91.7813 10.8975C90.9098 10.8975 90.4196 11.4683 90.4196 12.4444C90.4196 13.4282 90.9099 13.9946 91.7813 13.9946C92.6494 13.9946 93.1441 13.4243 93.1441 12.4443Z" fill="white"/>
<path d="M95.5205 10.1948H96.4856V10.9102H96.5605C96.6876 10.6532 96.902 10.4379 97.1737 10.2941C97.4455 10.1503 97.7611 10.0852 98.0765 10.1079C98.3237 10.0914 98.5719 10.1245 98.8027 10.2046C99.0335 10.2847 99.241 10.4098 99.4099 10.5706C99.5788 10.7315 99.7046 10.9239 99.7782 11.1337C99.8518 11.3436 99.8711 11.5654 99.8348 11.7827V14.6977H98.8323V12.0059C98.8323 11.2822 98.4775 10.9224 97.7361 10.9224C97.5682 10.9154 97.4007 10.9408 97.245 10.9966C97.0892 11.0524 96.9489 11.1375 96.8337 11.2458C96.7185 11.3542 96.6311 11.4834 96.5775 11.6245C96.5238 11.7657 96.5053 11.9154 96.5231 12.0635V14.6978H95.5205V10.1948Z" fill="white"/>
<path d="M105.5 9.07373V10.2153H106.601V10.9639H105.5V13.2793C105.5 13.751 105.719 13.9575 106.218 13.9575C106.346 13.9572 106.474 13.9503 106.601 13.937V14.6772C106.42 14.7058 106.238 14.721 106.055 14.7226C104.94 14.7226 104.496 14.375 104.496 13.5068V10.9638H103.69V10.2153H104.496V9.07373H105.5Z" fill="white"/>
<path d="M107.97 8.43701H108.964V10.9185H109.043C109.176 10.6591 109.396 10.4425 109.674 10.2982C109.951 10.1539 110.272 10.0888 110.592 10.1118C110.838 10.1 111.084 10.1364 111.312 10.2184C111.54 10.3004 111.745 10.4261 111.912 10.5864C112.079 10.7468 112.204 10.9378 112.279 11.146C112.353 11.3541 112.374 11.5742 112.341 11.7905V14.6978H111.338V12.0098C111.338 11.2905 110.96 10.9263 110.252 10.9263C110.079 10.9137 109.906 10.9347 109.744 10.9878C109.582 11.0408 109.434 11.1247 109.313 11.2334C109.191 11.3421 109.097 11.4732 109.038 11.6173C108.98 11.7614 108.957 11.9152 108.973 12.0679V14.6977H107.97L107.97 8.43701Z" fill="white"/>
<path d="M118.187 13.4819C118.051 13.8935 117.756 14.2495 117.353 14.4876C116.951 14.7258 116.467 14.8309 115.986 14.7847C115.651 14.7925 115.319 14.7357 115.011 14.6182C114.704 14.5006 114.429 14.3252 114.206 14.1041C113.982 13.8829 113.816 13.6214 113.718 13.3376C113.621 13.0537 113.594 12.7544 113.639 12.4605C113.595 12.1656 113.622 11.8656 113.72 11.581C113.817 11.2963 113.983 11.0335 114.205 10.8105C114.427 10.5874 114.701 10.4092 115.007 10.288C115.314 10.1668 115.646 10.1054 115.982 10.1079C117.395 10.1079 118.248 10.9639 118.248 12.3779V12.688H114.661V12.7378C114.645 12.9031 114.668 13.0694 114.729 13.2261C114.79 13.3829 114.888 13.5266 115.015 13.6481C115.143 13.7695 115.297 13.866 115.469 13.9314C115.641 13.9968 115.826 14.0297 116.014 14.0278C116.253 14.0533 116.496 14.0151 116.712 13.9178C116.927 13.8206 117.104 13.6689 117.222 13.4819L118.187 13.4819ZM114.661 12.0308H117.226C117.239 11.8796 117.216 11.7278 117.158 11.5851C117.101 11.4424 117.01 11.3119 116.893 11.2021C116.775 11.0922 116.633 11.0054 116.475 10.9472C116.317 10.8891 116.147 10.8608 115.976 10.8643C115.803 10.8623 115.631 10.8912 115.47 10.9491C115.309 11.0071 115.163 11.0929 115.041 11.2017C114.918 11.3104 114.821 11.4397 114.756 11.5821C114.691 11.7245 114.658 11.8771 114.661 12.0308H114.661Z" fill="white"/>
<path d="M24.769 20.3006C24.7797 19.466 25.0014 18.6476 25.4135 17.9216C25.8255 17.1957 26.4145 16.5857 27.1256 16.1486C26.6738 15.5034 26.0779 14.9725 25.385 14.5979C24.6922 14.2234 23.9216 14.0155 23.1344 13.9909C21.4552 13.8146 19.8272 14.9957 18.9715 14.9957C18.0992 14.9957 16.7817 14.0084 15.363 14.0376C14.4453 14.0672 13.551 14.3341 12.7671 14.8121C11.9832 15.2902 11.3365 15.9632 10.8901 16.7655C8.95607 20.1139 10.3987 25.0349 12.2513 27.7415C13.1782 29.0669 14.2615 30.5473 15.6789 30.4948C17.066 30.4373 17.584 29.6104 19.2583 29.6104C20.9171 29.6104 21.4031 30.4948 22.8493 30.4615C24.3377 30.4373 25.2754 29.1302 26.1698 27.7923C26.8358 26.848 27.3483 25.8042 27.6882 24.6998C26.8235 24.3341 26.0856 23.7219 25.5665 22.9396C25.0474 22.1573 24.77 21.2395 24.769 20.3006V20.3006Z" fill="white"/>
<path d="M22.0374 12.2108C22.8489 11.2366 23.2487 9.98445 23.1519 8.72021C21.9121 8.85044 20.7668 9.44299 19.9443 10.3798C19.5422 10.8375 19.2342 11.3699 19.0379 11.9467C18.8417 12.5235 18.7611 13.1333 18.8006 13.7412C19.4208 13.7476 20.0343 13.6132 20.5949 13.3481C21.1556 13.083 21.6488 12.6942 22.0374 12.2108Z" fill="white"/>
</g>
<defs>
<clipPath id="clip0_22_484">
<rect width="135" height="40" fill="white"/>
</clipPath>
</defs>
</svg>
