<svg width="135" height="40" viewBox="0 0 135 40" fill="none" xmlns="http://www.w3.org/2000/svg">
<g clip-path="url(#clip0_16_379)">
<path fill-rule="evenodd" clip-rule="evenodd" d="M129.978 40H5.02161C2.25399 40 0 37.7456 0 35V5C0 2.24439 2.25399 0 5.02161 0H129.978C132.744 0 135 2.24439 135 5V35C135 37.7456 132.744 40 129.978 40Z" fill="black"/>
<path fill-rule="evenodd" clip-rule="evenodd" d="M129.978 0.800499C132.3 0.800499 134.2 2.68828 134.2 5V35C134.2 37.3117 132.312 39.1995 129.978 39.1995H5.02161C2.7003 39.1995 0.800366 37.3117 0.800366 35V5C0.800366 2.68828 2.68783 0.800499 5.02161 0.800499H129.978ZM129.978 0H5.02161C2.25399 0 0 2.25436 0 5V35C0 37.7556 2.25399 40 5.02161 40H129.978C132.744 40 135 37.7556 135 35V5C135 2.25436 132.744 0 129.978 0Z" fill="#A6A6A6"/>
<path d="M68.136 21.752C65.784 21.752 63.867 23.54 63.867 26.005C63.867 28.454 65.784 30.258 68.136 30.258C70.488 30.258 72.405 28.454 72.405 26.005C72.405 23.54 70.488 21.752 68.136 21.752ZM68.136 28.583C66.847 28.583 65.735 27.52 65.735 26.005C65.735 24.474 66.847 23.427 68.136 23.427C69.425 23.427 70.536 24.474 70.536 26.005C70.536 27.519 69.425 28.583 68.136 28.583ZM58.822 21.752C56.47 21.752 54.553 23.54 54.553 26.005C54.553 28.454 56.47 30.258 58.822 30.258C61.174 30.258 63.091 28.454 63.091 26.005C63.092 23.54 61.174 21.752 58.822 21.752ZM58.822 28.583C57.533 28.583 56.422 27.52 56.422 26.005C56.422 24.474 57.534 23.427 58.822 23.427C60.111 23.427 61.222 24.474 61.222 26.005C61.223 27.519 60.111 28.583 58.822 28.583ZM47.744 23.057V24.861H52.062C51.933 25.876 51.595 26.617 51.079 27.133C50.451 27.761 49.468 28.454 47.744 28.454C45.086 28.454 43.008 26.311 43.008 23.653C43.008 20.995 45.086 18.852 47.744 18.852C49.178 18.852 50.225 19.416 50.998 20.141L52.271 18.868C51.192 17.837 49.758 17.047 47.744 17.047C44.103 17.047 41.042 20.011 41.042 23.652C41.042 27.293 44.103 30.257 47.744 30.257C49.709 30.257 51.192 29.613 52.352 28.404C53.544 27.212 53.915 25.536 53.915 24.183C53.915 23.764 53.883 23.377 53.818 23.055H47.744V23.057ZM93.052 24.458C92.698 23.507 91.618 21.751 89.411 21.751C87.22 21.751 85.4 23.475 85.4 26.004C85.4 28.388 87.204 30.257 89.621 30.257C91.57 30.257 92.698 29.065 93.165 28.372L91.715 27.405C91.232 28.114 90.571 28.581 89.621 28.581C88.67 28.581 87.994 28.146 87.559 27.292L93.246 24.94L93.052 24.458ZM87.252 25.876C87.204 24.233 88.525 23.395 89.475 23.395C90.216 23.395 90.844 23.765 91.054 24.297L87.252 25.876ZM82.628 30H84.497V17.499H82.628V30ZM79.567 22.702H79.503C79.084 22.203 78.279 21.751 77.264 21.751C75.137 21.751 73.188 23.62 73.188 26.02C73.188 28.404 75.137 30.257 77.264 30.257C78.279 30.257 79.084 29.806 79.503 29.29H79.567V29.902C79.567 31.529 78.697 32.399 77.295 32.399C76.151 32.399 75.442 31.577 75.152 30.885L73.525 31.562C73.992 32.69 75.233 34.075 77.295 34.075C79.486 34.075 81.339 32.786 81.339 29.645V22.009H79.567V22.702V22.702ZM77.425 28.583C76.136 28.583 75.057 27.504 75.057 26.021C75.057 24.523 76.136 23.427 77.425 23.427C78.698 23.427 79.696 24.522 79.696 26.021C79.696 27.503 78.698 28.583 77.425 28.583ZM101.806 17.499H97.335V30H99.2V25.264H101.805C103.873 25.264 105.906 23.767 105.906 21.382C105.906 18.997 103.874 17.499 101.806 17.499ZM101.854 23.524H99.2V19.239H101.854C103.249 19.239 104.041 20.394 104.041 21.382C104.041 22.35 103.249 23.524 101.854 23.524ZM113.386 21.729C112.035 21.729 110.636 22.324 110.057 23.643L111.714 24.335C112.068 23.643 112.727 23.418 113.419 23.418C114.384 23.418 115.365 23.997 115.381 25.026V25.155C115.043 24.962 114.319 24.672 113.435 24.672C111.65 24.672 109.832 25.653 109.832 27.487C109.832 29.16 111.296 30.237 112.936 30.237C114.191 30.237 114.882 29.674 115.316 29.015H115.38V29.98H117.181V25.187C117.181 22.967 115.525 21.729 113.386 21.729ZM113.16 28.58C112.549 28.58 111.696 28.274 111.696 27.519C111.696 26.554 112.758 26.184 113.674 26.184C114.494 26.184 114.88 26.361 115.379 26.602C115.235 27.76 114.238 28.58 113.16 28.58ZM123.743 22.002L121.604 27.422H121.54L119.321 22.002H117.311L120.64 29.577L118.742 33.791H120.688L125.819 22.002H123.743V22.002ZM106.936 30H108.802V17.499H106.936V30Z" fill="white"/>
<path d="M20.7169 19.4243L10.0699 30.7243C10.0709 30.7263 10.0709 30.7283 10.0719 30.7303C10.3979 31.9583 11.5189 32.8613 12.8489 32.8613C13.3809 32.8613 13.8799 32.7173 14.3079 32.4653L14.3419 32.4453L26.3259 25.5303L20.7169 19.4243Z" fill="#EB4335"/>
<path d="M31.488 17.5003L31.478 17.4933L26.304 14.4933L20.475 19.6803L26.324 25.5283L31.471 22.5593C32.373 22.0723 32.985 21.1213 32.985 20.0243C32.985 18.9353 32.381 17.9883 31.488 17.5003Z" fill="#FABC13"/>
<path d="M10.07 9.27734C10.006 9.51334 9.97198 9.76034 9.97198 10.0173V29.9843C9.97198 30.2413 10.005 30.4893 10.07 30.7243L21.083 19.7133L10.07 9.27734Z" fill="#547DBF"/>
<path d="M20.7949 20.0003L26.3059 14.4913L14.3349 7.55132C13.8999 7.29032 13.3929 7.14032 12.8489 7.14032C11.5189 7.14032 10.3969 8.04532 10.0699 9.27432V9.27732L20.7949 20.0003Z" fill="#30A851"/>
<path d="M47.375 9.791H44.467V10.512H46.646C46.587 11.098 46.352 11.559 45.959 11.894C45.565 12.229 45.062 12.397 44.467 12.397C43.813 12.397 43.26 12.171 42.808 11.718C42.364 11.257 42.137 10.688 42.137 10C42.137 9.313 42.364 8.743 42.808 8.282C43.26 7.83 43.813 7.604 44.467 7.604C44.802 7.604 45.121 7.662 45.414 7.788C45.707 7.914 45.942 8.09 46.126 8.316L46.679 7.763C46.428 7.478 46.109 7.26 45.716 7.101C45.322 6.942 44.911 6.866 44.467 6.866C43.595 6.866 42.858 7.168 42.255 7.771C41.651 8.375 41.35 9.12 41.35 10C41.35 10.88 41.651 11.626 42.255 12.229C42.858 12.833 43.595 13.134 44.467 13.134C45.38 13.134 46.109 12.841 46.671 12.246C47.165 11.752 47.417 11.081 47.417 10.243C47.417 10.101 47.4 9.95 47.375 9.791Z" fill="white"/>
<path d="M48.523 7V13H52.026V12.263H49.294V10.361H51.757V9.64H49.294V7.738H52.026V7H48.523Z" fill="white"/>
<path d="M56.952 7.738V7H52.829V7.738H54.505V13H55.276V7.738H56.952Z" fill="white"/>
<path d="M60.7069 7H59.9359V13H60.7069V7Z" fill="white"/>
<path d="M65.802 7.738V7H61.679V7.738H63.355V13H64.126V7.738H65.802Z" fill="white"/>
<path d="M73.604 7.78C73.009 7.168 72.28 6.866 71.408 6.866C70.537 6.866 69.807 7.168 69.212 7.771C68.617 8.366 68.324 9.112 68.324 10C68.324 10.889 68.617 11.634 69.212 12.229C69.807 12.833 70.537 13.134 71.408 13.134C72.271 13.134 73.009 12.833 73.604 12.229C74.199 11.634 74.492 10.889 74.492 10C74.492 9.12 74.199 8.375 73.604 7.78ZM69.766 8.282C70.21 7.83 70.754 7.604 71.408 7.604C72.062 7.604 72.606 7.83 73.042 8.282C73.486 8.727 73.704 9.305 73.704 10C73.704 10.696 73.486 11.274 73.042 11.718C72.606 12.171 72.062 12.397 71.408 12.397C70.754 12.397 70.21 12.171 69.766 11.718C69.33 11.266 69.112 10.696 69.112 10C69.112 9.305 69.33 8.735 69.766 8.282Z" fill="white"/>
<path d="M76.344 9.263L76.311 8.106H76.344L79.395 13H80.199V7H79.428V10.512L79.462 11.668H79.428L76.512 7H75.574V13H76.344V9.263Z" fill="white"/>
</g>
<defs>
<clipPath id="clip0_16_379">
<rect width="135" height="40" fill="white"/>
</clipPath>
</defs>
</svg>
